<svg xmlns="http://www.w3.org/2000/svg" width="512" height="512" viewBox="0 0 512 512">
  
  <rect width="512" height="512" rx="138.24" fill="#100e12"/>
  <g transform="translate(84.928, 187.648)" fill="#fafaf7">
    <path d="M25.651 1.536Q17.818 1.536 12.480-0.922Q7.142-3.379 4.416-7.642Q1.690-11.904 1.690-17.434L15.514-17.434Q15.514-15.437 16.627-13.786Q17.741-12.134 19.968-11.213Q22.195-10.291 25.651-10.291Q28.646-10.291 30.758-11.059Q32.870-11.827 33.984-13.210Q35.098-14.592 35.098-16.512Q35.098-18.970 33.024-20.314Q30.950-21.658 26.035-22.042L22.426-22.349Q13.747-23.117 8.602-27.802Q3.456-32.486 3.456-40.243Q3.456-45.773 6.029-49.690Q8.602-53.606 13.286-55.680Q17.971-57.754 24.346-57.754Q31.258-57.754 36.058-55.450Q40.858-53.146 43.392-48.960Q45.926-44.774 45.926-39.245L32.102-39.245Q32.102-41.088 31.181-42.624Q30.259-44.160 28.531-45.043Q26.803-45.926 24.346-45.926Q22.042-45.926 20.467-45.197Q18.893-44.467 18.086-43.162Q17.280-41.856 17.280-40.243Q17.280-38.093 18.739-36.557Q20.198-35.021 23.808-34.714L27.418-34.406Q33.715-33.869 38.554-31.680Q43.392-29.491 46.157-25.728Q48.922-21.965 48.922-16.512Q48.922-11.059 46.118-6.989Q43.315-2.918 38.131-0.691Q32.947 1.536 25.651 1.536 M115.430 0L101.146 0L101.146-22.042L79.795-22.042L79.795 0L65.510 0L65.510-56.064L79.795-56.064L79.795-34.483L101.146-34.483L101.146-56.064L115.430-56.064 M145.229 0L130.944 0L148.915-56.064L171.802-56.064L190.387 0L175.642 0L171.571-12.979L149.222-12.979L145.229 0M152.755-24.653L167.885-24.653L161.664-44.544L158.822-44.544 M220.186 0L205.901 0L205.901-56.525L229.171-56.525Q236.467-56.525 241.766-54.336Q247.066-52.147 249.907-47.885Q252.749-43.622 252.749-37.325L252.749-36.096Q252.749-29.798 249.907-25.651Q247.142-21.734 242.381-19.584L256.128 0L239.693 0L228.326-17.203L220.186-17.203L220.186 0M230.016-44.544L220.186-44.544L220.186-28.186L230.016-28.186Q232.550-28.186 234.394-29.184Q236.237-30.182 237.274-32.026Q238.310-33.869 238.310-36.326Q238.310-38.861 237.274-40.704Q236.237-42.547 234.394-43.546Q232.550-44.544 230.016-44.544 M285.005 0L271.949 0L271.949-56.064L291.763-56.064L303.283-26.496L304.819-26.496L316.262-56.064L336.461-56.064L336.461 0L322.330 0L322.330-42.086L310.118-11.290L297.139-11.290L285.005-41.702"/>
  </g>
  <g transform="translate(71.688, 350.464)" fill="#ff5a3c">
    <path d="M57.408 3.533Q45.043 3.533 35.505-0.707Q25.966-4.946 19.430-12.188Q12.895-19.430 9.450-28.439Q6.006-37.448 6.006-46.986L6.006-50.519Q6.006-60.411 9.450-69.508Q12.895-78.605 19.342-85.670Q25.789-92.736 35.151-96.887Q44.513-101.038 56.348-101.038Q72.069-101.038 83.021-93.972Q93.972-86.907 99.802-75.337Q105.631-63.767 105.631-50.166L105.631-39.921L36.388-39.921Q37.094-37.094 37.978-34.621Q40.274-28.616 45.043-25.436Q49.812-22.257 57.408-22.257Q64.120-22.257 68.448-24.553Q72.776-26.849 74.542-30.735L103.864-30.735Q101.745-20.844 95.474-13.071Q89.203-5.299 79.576-0.883Q69.949 3.533 57.408 3.533M36.388-57.231L75.425-57.231Q74.895-60.764 73.836-63.590Q71.539-69.243 67.212-72.246Q62.884-75.249 56.348-75.249Q49.989-75.249 45.308-72.334Q40.627-69.420 38.154-63.590Q36.918-60.764 36.388-57.231 M200.878 0L175.442 0L175.442-18.194Q174.382-14.838 172.792-12.012Q168.730-4.946 161.752-1.236Q154.775 2.473 144.530 2.473Q134.285 2.473 126.336-1.236Q118.387-4.946 113.883-11.923Q109.379-18.900 109.379-28.616Q109.379-39.567 115.208-46.368Q121.037-53.169 131.282-56.348Q141.527-59.528 154.775-59.528L170.143-59.528Q170.143-65.887 167.140-69.243Q163.960-72.422 156.895-72.422Q153.539-72.422 147.003-72.246Q140.467-72.069 133.225-71.716Q125.983-71.363 119.977-71.009L119.977-97.859Q124.216-98.212 130.045-98.565Q135.875-98.918 142.145-99.095Q148.416-99.272 153.715-99.272Q168.730-99.272 179.240-94.856Q189.750-90.440 195.314-81.608Q200.878-72.776 200.878-59.174L200.878 0M170.143-36.035L170.143-42.924L154.775-42.924Q148.239-42.924 144.707-39.656Q141.174-36.388 141.174-30.912Q141.174-25.613 144.707-22.345Q148.239-19.077 154.775-19.077Q159.014-19.077 162.282-20.579Q165.550-22.080 167.670-25.789Q169.789-29.499 170.143-36.035 M275.988 1.413L262.740 1.413Q246.843 1.413 237.393-2.473Q227.942-6.359 223.703-15.368Q219.464-24.376 219.464-39.744L219.464-74.189L205.332-74.189L205.332-97.505L219.640-97.505L219.640-122.941L249.316-122.941L249.316-97.505L275.988-97.505L275.988-74.189L249.139-74.189L249.139-38.861Q249.139-32.325 252.584-28.881Q256.028-25.436 262.564-25.436L275.988-25.436 M325.839 3.180Q304.643 3.180 292.454-5.564Q280.266-14.308 279.383-30.205L307.645-30.205Q308.352-25.789 313.121-22.610Q317.891-19.430 326.546-19.430Q332.728-19.430 337.233-21.285Q341.737-23.140 341.737-27.379Q341.737-31.089 338.204-33.473Q334.671-35.858 325.309-36.741L318.597-37.448Q299.873-39.391 291.041-47.693Q282.209-55.995 282.209-68.536Q282.209-79.311 287.508-86.289Q292.808-93.266 302.170-96.799Q311.532-100.332 323.543-100.332Q343.150-100.332 355.162-91.764Q367.173-83.197 367.880-67.123L339.617-67.123Q338.911-71.539 334.848-74.630Q330.785-77.722 323.190-77.722Q317.714-77.722 314.269-75.779Q310.825-73.836 310.825-70.303Q310.825-66.593 314.093-64.827Q317.361-63.060 324.603-62.177L331.315-61.471Q350.039-59.528 360.196-51.137Q370.353-42.747 370.353-29.146Q370.353-19.077 364.965-11.835Q359.578-4.593 349.597-0.707Q339.617 3.180 325.839 3.180"/>
  </g>
</svg>